<mxfile host="Electron" modified="2023-11-20T07:53:38.425Z" agent="Mozilla/5.0 (Windows NT 10.0; Win64; x64) AppleWebKit/537.36 (KHTML, like Gecko) draw.io/22.0.2 Chrome/114.0.5735.289 Electron/25.8.4 Safari/537.36" etag="26jTHrgNKRlW1noSklh3" version="22.0.2" type="device">
  <diagram name="Page-1" id="OMpnuDulmeeFg09J-dXz">
    <mxGraphModel dx="1434" dy="836" grid="1" gridSize="10" guides="1" tooltips="1" connect="1" arrows="1" fold="1" page="1" pageScale="1" pageWidth="827" pageHeight="1169" math="0" shadow="0">
      <root>
        <mxCell id="0" />
        <mxCell id="1" parent="0" />
        <mxCell id="9twunwav9gETao4i-T1g-1" value="" style="swimlane;startSize=0;" vertex="1" parent="1">
          <mxGeometry x="120" y="40" width="600" height="880" as="geometry" />
        </mxCell>
        <mxCell id="9twunwav9gETao4i-T1g-2" value="&lt;b&gt;&lt;font style=&quot;font-size: 15px;&quot;&gt;Online Shopping System&lt;/font&gt;&lt;/b&gt;" style="text;html=1;strokeColor=none;fillColor=none;align=center;verticalAlign=middle;whiteSpace=wrap;rounded=0;" vertex="1" parent="9twunwav9gETao4i-T1g-1">
          <mxGeometry x="200" width="198" height="30" as="geometry" />
        </mxCell>
        <mxCell id="9twunwav9gETao4i-T1g-4" value="Add a New Product" style="ellipse;whiteSpace=wrap;html=1;" vertex="1" parent="9twunwav9gETao4i-T1g-1">
          <mxGeometry x="130" y="200" width="130" height="40" as="geometry" />
        </mxCell>
        <mxCell id="9twunwav9gETao4i-T1g-5" value="" style="endArrow=block;endSize=16;endFill=0;html=1;rounded=0;entryX=0.922;entryY=0.22;entryDx=0;entryDy=0;entryPerimeter=0;" edge="1" parent="9twunwav9gETao4i-T1g-1" target="9twunwav9gETao4i-T1g-4">
          <mxGeometry width="160" relative="1" as="geometry">
            <mxPoint x="330" y="160" as="sourcePoint" />
            <mxPoint x="490" y="160" as="targetPoint" />
          </mxGeometry>
        </mxCell>
        <mxCell id="9twunwav9gETao4i-T1g-7" value="" style="endArrow=block;endSize=16;endFill=0;html=1;rounded=0;exitX=0;exitY=0.5;exitDx=0;exitDy=0;entryX=0.944;entryY=0.72;entryDx=0;entryDy=0;entryPerimeter=0;" edge="1" parent="9twunwav9gETao4i-T1g-1" source="9twunwav9gETao4i-T1g-8" target="9twunwav9gETao4i-T1g-4">
          <mxGeometry width="160" relative="1" as="geometry">
            <mxPoint x="270" y="190" as="sourcePoint" />
            <mxPoint x="250" y="220" as="targetPoint" />
          </mxGeometry>
        </mxCell>
        <mxCell id="9twunwav9gETao4i-T1g-9" value="Add Electronics" style="ellipse;whiteSpace=wrap;html=1;" vertex="1" parent="9twunwav9gETao4i-T1g-1">
          <mxGeometry x="330" y="140" width="130" height="40" as="geometry" />
        </mxCell>
        <mxCell id="9twunwav9gETao4i-T1g-8" value="Add Clothing" style="ellipse;whiteSpace=wrap;html=1;" vertex="1" parent="9twunwav9gETao4i-T1g-1">
          <mxGeometry x="330" y="240" width="140" height="40" as="geometry" />
        </mxCell>
        <mxCell id="9twunwav9gETao4i-T1g-10" value="" style="endArrow=none;html=1;rounded=0;entryX=0;entryY=0.5;entryDx=0;entryDy=0;" edge="1" parent="9twunwav9gETao4i-T1g-1" target="9twunwav9gETao4i-T1g-4">
          <mxGeometry width="50" height="50" relative="1" as="geometry">
            <mxPoint x="-20" y="360" as="sourcePoint" />
            <mxPoint x="80" y="220" as="targetPoint" />
          </mxGeometry>
        </mxCell>
        <mxCell id="9twunwav9gETao4i-T1g-11" value="Delete a Product" style="ellipse;whiteSpace=wrap;html=1;" vertex="1" parent="9twunwav9gETao4i-T1g-1">
          <mxGeometry x="80" y="280" width="130" height="50" as="geometry" />
        </mxCell>
        <mxCell id="9twunwav9gETao4i-T1g-13" value="Print the List of Products" style="ellipse;whiteSpace=wrap;html=1;" vertex="1" parent="9twunwav9gETao4i-T1g-1">
          <mxGeometry x="80" y="370" width="170" height="40" as="geometry" />
        </mxCell>
        <mxCell id="9twunwav9gETao4i-T1g-15" value="Save the List of Products in a File" style="ellipse;whiteSpace=wrap;html=1;" vertex="1" parent="9twunwav9gETao4i-T1g-1">
          <mxGeometry x="80" y="470" width="180" height="50" as="geometry" />
        </mxCell>
        <mxCell id="9twunwav9gETao4i-T1g-17" value="Check for Maximum Number of Products" style="ellipse;whiteSpace=wrap;html=1;" vertex="1" parent="9twunwav9gETao4i-T1g-1">
          <mxGeometry x="70" y="40" width="210" height="50" as="geometry" />
        </mxCell>
        <mxCell id="9twunwav9gETao4i-T1g-18" value="&amp;lt;&amp;lt;include&amp;gt;&amp;gt;" style="endArrow=open;endSize=12;dashed=1;html=1;rounded=0;exitX=0.5;exitY=0;exitDx=0;exitDy=0;" edge="1" parent="9twunwav9gETao4i-T1g-1" source="9twunwav9gETao4i-T1g-4">
          <mxGeometry width="160" relative="1" as="geometry">
            <mxPoint x="154" y="193" as="sourcePoint" />
            <mxPoint x="180" y="90" as="targetPoint" />
          </mxGeometry>
        </mxCell>
        <mxCell id="9twunwav9gETao4i-T1g-20" value="Select the Type of Product" style="ellipse;whiteSpace=wrap;html=1;" vertex="1" parent="9twunwav9gETao4i-T1g-1">
          <mxGeometry x="398" y="370" width="160" height="50" as="geometry" />
        </mxCell>
        <mxCell id="9twunwav9gETao4i-T1g-21" value="View the List of Products" style="ellipse;whiteSpace=wrap;html=1;" vertex="1" parent="9twunwav9gETao4i-T1g-1">
          <mxGeometry x="398" y="450" width="170" height="50" as="geometry" />
        </mxCell>
        <mxCell id="9twunwav9gETao4i-T1g-22" value="Sort the List Alphabetically" style="ellipse;whiteSpace=wrap;html=1;" vertex="1" parent="9twunwav9gETao4i-T1g-1">
          <mxGeometry x="228" y="540" width="170" height="50" as="geometry" />
        </mxCell>
        <mxCell id="9twunwav9gETao4i-T1g-23" value="" style="endArrow=none;html=1;rounded=0;exitX=1;exitY=0.5;exitDx=0;exitDy=0;" edge="1" parent="9twunwav9gETao4i-T1g-1" source="9twunwav9gETao4i-T1g-20">
          <mxGeometry width="50" height="50" relative="1" as="geometry">
            <mxPoint x="590" y="580" as="sourcePoint" />
            <mxPoint x="640" y="530" as="targetPoint" />
          </mxGeometry>
        </mxCell>
        <mxCell id="9twunwav9gETao4i-T1g-24" value="" style="endArrow=none;html=1;rounded=0;exitX=1;exitY=0.5;exitDx=0;exitDy=0;" edge="1" parent="9twunwav9gETao4i-T1g-1" source="9twunwav9gETao4i-T1g-21">
          <mxGeometry width="50" height="50" relative="1" as="geometry">
            <mxPoint x="590" y="590" as="sourcePoint" />
            <mxPoint x="640" y="540" as="targetPoint" />
          </mxGeometry>
        </mxCell>
        <mxCell id="9twunwav9gETao4i-T1g-25" value="" style="endArrow=none;html=1;rounded=0;exitX=1;exitY=0.5;exitDx=0;exitDy=0;" edge="1" parent="9twunwav9gETao4i-T1g-1" source="9twunwav9gETao4i-T1g-22">
          <mxGeometry width="50" height="50" relative="1" as="geometry">
            <mxPoint x="590" y="600" as="sourcePoint" />
            <mxPoint x="630" y="540" as="targetPoint" />
          </mxGeometry>
        </mxCell>
        <mxCell id="9twunwav9gETao4i-T1g-26" value="&amp;lt;&amp;lt;include&amp;gt;&amp;gt;" style="endArrow=open;endSize=12;dashed=1;html=1;rounded=0;exitX=0.5;exitY=0;exitDx=0;exitDy=0;" edge="1" parent="9twunwav9gETao4i-T1g-1" source="9twunwav9gETao4i-T1g-22">
          <mxGeometry width="160" relative="1" as="geometry">
            <mxPoint x="413" y="590" as="sourcePoint" />
            <mxPoint x="398" y="480" as="targetPoint" />
          </mxGeometry>
        </mxCell>
        <mxCell id="9twunwav9gETao4i-T1g-27" value="Select a Product" style="ellipse;whiteSpace=wrap;html=1;" vertex="1" parent="9twunwav9gETao4i-T1g-1">
          <mxGeometry x="440" y="590" width="130" height="40" as="geometry" />
        </mxCell>
        <mxCell id="9twunwav9gETao4i-T1g-28" value="" style="endArrow=none;html=1;rounded=0;exitX=0.971;exitY=0.32;exitDx=0;exitDy=0;exitPerimeter=0;" edge="1" parent="9twunwav9gETao4i-T1g-1" source="9twunwav9gETao4i-T1g-27">
          <mxGeometry width="50" height="50" relative="1" as="geometry">
            <mxPoint x="590" y="600" as="sourcePoint" />
            <mxPoint x="630" y="550" as="targetPoint" />
          </mxGeometry>
        </mxCell>
        <mxCell id="9twunwav9gETao4i-T1g-29" value="Add Items to Shopping Cart" style="ellipse;whiteSpace=wrap;html=1;" vertex="1" parent="9twunwav9gETao4i-T1g-1">
          <mxGeometry x="400" y="680" width="158" height="40" as="geometry" />
        </mxCell>
        <mxCell id="9twunwav9gETao4i-T1g-30" value="View the Information related to the Product" style="ellipse;whiteSpace=wrap;html=1;" vertex="1" parent="9twunwav9gETao4i-T1g-1">
          <mxGeometry x="120" y="640" width="220" height="50" as="geometry" />
        </mxCell>
        <mxCell id="9twunwav9gETao4i-T1g-31" value="&amp;lt;&amp;lt;include&amp;gt;&amp;gt;" style="endArrow=open;endSize=12;dashed=1;html=1;rounded=0;exitX=0.982;exitY=0.32;exitDx=0;exitDy=0;exitPerimeter=0;entryX=0;entryY=0.5;entryDx=0;entryDy=0;" edge="1" parent="9twunwav9gETao4i-T1g-1" source="9twunwav9gETao4i-T1g-30" target="9twunwav9gETao4i-T1g-27">
          <mxGeometry x="0.0028" width="160" relative="1" as="geometry">
            <mxPoint x="267" y="700" as="sourcePoint" />
            <mxPoint x="410" y="630" as="targetPoint" />
            <mxPoint as="offset" />
          </mxGeometry>
        </mxCell>
        <mxCell id="9twunwav9gETao4i-T1g-32" value="View Shopping Cart" style="ellipse;whiteSpace=wrap;html=1;" vertex="1" parent="9twunwav9gETao4i-T1g-1">
          <mxGeometry x="428" y="760" width="157" height="40" as="geometry" />
        </mxCell>
        <mxCell id="9twunwav9gETao4i-T1g-33" value="" style="endArrow=none;html=1;rounded=0;exitX=0.962;exitY=0.3;exitDx=0;exitDy=0;exitPerimeter=0;" edge="1" parent="9twunwav9gETao4i-T1g-1" source="9twunwav9gETao4i-T1g-29">
          <mxGeometry width="50" height="50" relative="1" as="geometry">
            <mxPoint x="590" y="600" as="sourcePoint" />
            <mxPoint x="640" y="550" as="targetPoint" />
          </mxGeometry>
        </mxCell>
        <mxCell id="9twunwav9gETao4i-T1g-34" value="" style="endArrow=none;html=1;rounded=0;" edge="1" parent="9twunwav9gETao4i-T1g-1">
          <mxGeometry width="50" height="50" relative="1" as="geometry">
            <mxPoint x="570" y="770" as="sourcePoint" />
            <mxPoint x="640" y="580" as="targetPoint" />
          </mxGeometry>
        </mxCell>
        <mxCell id="9twunwav9gETao4i-T1g-35" value="View the List of Products" style="ellipse;whiteSpace=wrap;html=1;" vertex="1" parent="9twunwav9gETao4i-T1g-1">
          <mxGeometry x="190" y="720" width="160" height="50" as="geometry" />
        </mxCell>
        <mxCell id="9twunwav9gETao4i-T1g-36" value="View the Final Price" style="ellipse;whiteSpace=wrap;html=1;" vertex="1" parent="9twunwav9gETao4i-T1g-1">
          <mxGeometry x="190" y="820" width="160" height="40" as="geometry" />
        </mxCell>
        <mxCell id="9twunwav9gETao4i-T1g-37" value="" style="endArrow=block;endSize=16;endFill=0;html=1;rounded=0;exitX=1;exitY=0.5;exitDx=0;exitDy=0;entryX=0;entryY=0;entryDx=0;entryDy=0;" edge="1" parent="9twunwav9gETao4i-T1g-1" source="9twunwav9gETao4i-T1g-35" target="9twunwav9gETao4i-T1g-32">
          <mxGeometry width="160" relative="1" as="geometry">
            <mxPoint x="433.5" y="811" as="sourcePoint" />
            <mxPoint x="356.5" y="780" as="targetPoint" />
          </mxGeometry>
        </mxCell>
        <mxCell id="9twunwav9gETao4i-T1g-38" value="" style="endArrow=block;endSize=16;endFill=0;html=1;rounded=0;exitX=1;exitY=0.5;exitDx=0;exitDy=0;entryX=0;entryY=0;entryDx=0;entryDy=0;" edge="1" parent="9twunwav9gETao4i-T1g-1" source="9twunwav9gETao4i-T1g-36">
          <mxGeometry width="160" relative="1" as="geometry">
            <mxPoint x="350" y="767" as="sourcePoint" />
            <mxPoint x="451" y="793" as="targetPoint" />
          </mxGeometry>
        </mxCell>
        <mxCell id="9twunwav9gETao4i-T1g-39" value="&amp;lt;&amp;lt;include&amp;gt;&amp;gt;" style="endArrow=open;endSize=12;dashed=1;html=1;rounded=0;exitX=0.5;exitY=0;exitDx=0;exitDy=0;entryX=0.5;entryY=1;entryDx=0;entryDy=0;" edge="1" parent="9twunwav9gETao4i-T1g-1" source="9twunwav9gETao4i-T1g-29" target="9twunwav9gETao4i-T1g-27">
          <mxGeometry x="0.0028" width="160" relative="1" as="geometry">
            <mxPoint x="346" y="666" as="sourcePoint" />
            <mxPoint x="450" y="620" as="targetPoint" />
            <mxPoint as="offset" />
          </mxGeometry>
        </mxCell>
        <mxCell id="9twunwav9gETao4i-T1g-3" value="Manager" style="shape=umlActor;verticalLabelPosition=bottom;verticalAlign=top;html=1;outlineConnect=0;" vertex="1" parent="1">
          <mxGeometry x="60" y="360" width="30" height="60" as="geometry" />
        </mxCell>
        <mxCell id="9twunwav9gETao4i-T1g-12" value="" style="endArrow=none;html=1;rounded=0;entryX=0;entryY=0.5;entryDx=0;entryDy=0;" edge="1" parent="1" target="9twunwav9gETao4i-T1g-11">
          <mxGeometry width="50" height="50" relative="1" as="geometry">
            <mxPoint x="100" y="410" as="sourcePoint" />
            <mxPoint x="150" y="360" as="targetPoint" />
          </mxGeometry>
        </mxCell>
        <mxCell id="9twunwav9gETao4i-T1g-14" value="" style="endArrow=none;html=1;rounded=0;entryX=0;entryY=0.5;entryDx=0;entryDy=0;entryPerimeter=0;" edge="1" parent="1" target="9twunwav9gETao4i-T1g-13">
          <mxGeometry width="50" height="50" relative="1" as="geometry">
            <mxPoint x="100" y="420" as="sourcePoint" />
            <mxPoint x="150" y="370" as="targetPoint" />
          </mxGeometry>
        </mxCell>
        <mxCell id="9twunwav9gETao4i-T1g-16" value="" style="endArrow=none;html=1;rounded=0;exitX=0;exitY=0.5;exitDx=0;exitDy=0;" edge="1" parent="1" source="9twunwav9gETao4i-T1g-15">
          <mxGeometry width="50" height="50" relative="1" as="geometry">
            <mxPoint x="30" y="500" as="sourcePoint" />
            <mxPoint x="80" y="450" as="targetPoint" />
          </mxGeometry>
        </mxCell>
        <mxCell id="9twunwav9gETao4i-T1g-19" value="Client" style="shape=umlActor;verticalLabelPosition=bottom;verticalAlign=top;html=1;" vertex="1" parent="1">
          <mxGeometry x="760" y="585" width="30" height="60" as="geometry" />
        </mxCell>
      </root>
    </mxGraphModel>
  </diagram>
</mxfile>
